<?xml version="1.0" standalone="yes"?>
<svg xmlns="http://www.w3.org/2000/svg" version="1.1" width="300" height="300">
  <rect x="0" y="0" width="300" height="300" fill="#ffffff" shape-rendering="crispEdges"/>
  <rect x="0" y="0" width="10.3448275862069" height="10.3448275862069" fill="#000000" shape-rendering="crispEdges"/>
  <rect x="0" y="10.3448275862069" width="10.3448275862069" height="10.3448275862069" fill="#000000" shape-rendering="crispEdges"/>
  <rect x="0" y="20.6896551724138" width="10.3448275862069" height="10.3448275862069" fill="#000000" shape-rendering="crispEdges"/>
  <rect x="0" y="31.0344827586207" width="10.3448275862069" height="10.3448275862069" fill="#000000" shape-rendering="crispEdges"/>
  <rect x="0" y="41.3793103448276" width="10.3448275862069" height="10.3448275862069" fill="#000000" shape-rendering="crispEdges"/>
  <rect x="0" y="51.7241379310345" width="10.3448275862069" height="10.3448275862069" fill="#000000" shape-rendering="crispEdges"/>
  <rect x="0" y="62.0689655172414" width="10.3448275862069" height="10.3448275862069" fill="#000000" shape-rendering="crispEdges"/>
  <rect x="0" y="82.7586206896552" width="10.3448275862069" height="10.3448275862069" fill="#000000" shape-rendering="crispEdges"/>
  <rect x="0" y="93.1034482758621" width="10.3448275862069" height="10.3448275862069" fill="#000000" shape-rendering="crispEdges"/>
  <rect x="0" y="113.793103448276" width="10.3448275862069" height="10.3448275862069" fill="#000000" shape-rendering="crispEdges"/>
  <rect x="0" y="124.137931034483" width="10.3448275862069" height="10.3448275862069" fill="#000000" shape-rendering="crispEdges"/>
  <rect x="0" y="134.48275862069" width="10.3448275862069" height="10.3448275862069" fill="#000000" shape-rendering="crispEdges"/>
  <rect x="0" y="175.862068965517" width="10.3448275862069" height="10.3448275862069" fill="#000000" shape-rendering="crispEdges"/>
  <rect x="0" y="186.206896551724" width="10.3448275862069" height="10.3448275862069" fill="#000000" shape-rendering="crispEdges"/>
  <rect x="0" y="196.551724137931" width="10.3448275862069" height="10.3448275862069" fill="#000000" shape-rendering="crispEdges"/>
  <rect x="0" y="206.896551724138" width="10.3448275862069" height="10.3448275862069" fill="#000000" shape-rendering="crispEdges"/>
  <rect x="0" y="227.586206896552" width="10.3448275862069" height="10.3448275862069" fill="#000000" shape-rendering="crispEdges"/>
  <rect x="0" y="237.931034482759" width="10.3448275862069" height="10.3448275862069" fill="#000000" shape-rendering="crispEdges"/>
  <rect x="0" y="248.275862068966" width="10.3448275862069" height="10.3448275862069" fill="#000000" shape-rendering="crispEdges"/>
  <rect x="0" y="258.620689655172" width="10.3448275862069" height="10.3448275862069" fill="#000000" shape-rendering="crispEdges"/>
  <rect x="0" y="268.965517241379" width="10.3448275862069" height="10.3448275862069" fill="#000000" shape-rendering="crispEdges"/>
  <rect x="0" y="279.310344827586" width="10.3448275862069" height="10.3448275862069" fill="#000000" shape-rendering="crispEdges"/>
  <rect x="0" y="289.655172413793" width="10.3448275862069" height="10.3448275862069" fill="#000000" shape-rendering="crispEdges"/>
  <rect x="10.3448275862069" y="0" width="10.3448275862069" height="10.3448275862069" fill="#000000" shape-rendering="crispEdges"/>
  <rect x="10.3448275862069" y="62.0689655172414" width="10.3448275862069" height="10.3448275862069" fill="#000000" shape-rendering="crispEdges"/>
  <rect x="10.3448275862069" y="82.7586206896552" width="10.3448275862069" height="10.3448275862069" fill="#000000" shape-rendering="crispEdges"/>
  <rect x="10.3448275862069" y="103.448275862069" width="10.3448275862069" height="10.3448275862069" fill="#000000" shape-rendering="crispEdges"/>
  <rect x="10.3448275862069" y="134.48275862069" width="10.3448275862069" height="10.3448275862069" fill="#000000" shape-rendering="crispEdges"/>
  <rect x="10.3448275862069" y="144.827586206897" width="10.3448275862069" height="10.3448275862069" fill="#000000" shape-rendering="crispEdges"/>
  <rect x="10.3448275862069" y="155.172413793103" width="10.3448275862069" height="10.3448275862069" fill="#000000" shape-rendering="crispEdges"/>
  <rect x="10.3448275862069" y="165.51724137931" width="10.3448275862069" height="10.3448275862069" fill="#000000" shape-rendering="crispEdges"/>
  <rect x="10.3448275862069" y="186.206896551724" width="10.3448275862069" height="10.3448275862069" fill="#000000" shape-rendering="crispEdges"/>
  <rect x="10.3448275862069" y="227.586206896552" width="10.3448275862069" height="10.3448275862069" fill="#000000" shape-rendering="crispEdges"/>
  <rect x="10.3448275862069" y="289.655172413793" width="10.3448275862069" height="10.3448275862069" fill="#000000" shape-rendering="crispEdges"/>
  <rect x="20.6896551724138" y="0" width="10.3448275862069" height="10.3448275862069" fill="#000000" shape-rendering="crispEdges"/>
  <rect x="20.6896551724138" y="20.6896551724138" width="10.3448275862069" height="10.3448275862069" fill="#000000" shape-rendering="crispEdges"/>
  <rect x="20.6896551724138" y="31.0344827586207" width="10.3448275862069" height="10.3448275862069" fill="#000000" shape-rendering="crispEdges"/>
  <rect x="20.6896551724138" y="41.3793103448276" width="10.3448275862069" height="10.3448275862069" fill="#000000" shape-rendering="crispEdges"/>
  <rect x="20.6896551724138" y="62.0689655172414" width="10.3448275862069" height="10.3448275862069" fill="#000000" shape-rendering="crispEdges"/>
  <rect x="20.6896551724138" y="93.1034482758621" width="10.3448275862069" height="10.3448275862069" fill="#000000" shape-rendering="crispEdges"/>
  <rect x="20.6896551724138" y="103.448275862069" width="10.3448275862069" height="10.3448275862069" fill="#000000" shape-rendering="crispEdges"/>
  <rect x="20.6896551724138" y="124.137931034483" width="10.3448275862069" height="10.3448275862069" fill="#000000" shape-rendering="crispEdges"/>
  <rect x="20.6896551724138" y="134.48275862069" width="10.3448275862069" height="10.3448275862069" fill="#000000" shape-rendering="crispEdges"/>
  <rect x="20.6896551724138" y="144.827586206897" width="10.3448275862069" height="10.3448275862069" fill="#000000" shape-rendering="crispEdges"/>
  <rect x="20.6896551724138" y="186.206896551724" width="10.3448275862069" height="10.3448275862069" fill="#000000" shape-rendering="crispEdges"/>
  <rect x="20.6896551724138" y="206.896551724138" width="10.3448275862069" height="10.3448275862069" fill="#000000" shape-rendering="crispEdges"/>
  <rect x="20.6896551724138" y="227.586206896552" width="10.3448275862069" height="10.3448275862069" fill="#000000" shape-rendering="crispEdges"/>
  <rect x="20.6896551724138" y="248.275862068966" width="10.3448275862069" height="10.3448275862069" fill="#000000" shape-rendering="crispEdges"/>
  <rect x="20.6896551724138" y="258.620689655172" width="10.3448275862069" height="10.3448275862069" fill="#000000" shape-rendering="crispEdges"/>
  <rect x="20.6896551724138" y="268.965517241379" width="10.3448275862069" height="10.3448275862069" fill="#000000" shape-rendering="crispEdges"/>
  <rect x="20.6896551724138" y="289.655172413793" width="10.3448275862069" height="10.3448275862069" fill="#000000" shape-rendering="crispEdges"/>
  <rect x="31.0344827586207" y="0" width="10.3448275862069" height="10.3448275862069" fill="#000000" shape-rendering="crispEdges"/>
  <rect x="31.0344827586207" y="20.6896551724138" width="10.3448275862069" height="10.3448275862069" fill="#000000" shape-rendering="crispEdges"/>
  <rect x="31.0344827586207" y="31.0344827586207" width="10.3448275862069" height="10.3448275862069" fill="#000000" shape-rendering="crispEdges"/>
  <rect x="31.0344827586207" y="41.3793103448276" width="10.3448275862069" height="10.3448275862069" fill="#000000" shape-rendering="crispEdges"/>
  <rect x="31.0344827586207" y="62.0689655172414" width="10.3448275862069" height="10.3448275862069" fill="#000000" shape-rendering="crispEdges"/>
  <rect x="31.0344827586207" y="103.448275862069" width="10.3448275862069" height="10.3448275862069" fill="#000000" shape-rendering="crispEdges"/>
  <rect x="31.0344827586207" y="113.793103448276" width="10.3448275862069" height="10.3448275862069" fill="#000000" shape-rendering="crispEdges"/>
  <rect x="31.0344827586207" y="124.137931034483" width="10.3448275862069" height="10.3448275862069" fill="#000000" shape-rendering="crispEdges"/>
  <rect x="31.0344827586207" y="134.48275862069" width="10.3448275862069" height="10.3448275862069" fill="#000000" shape-rendering="crispEdges"/>
  <rect x="31.0344827586207" y="144.827586206897" width="10.3448275862069" height="10.3448275862069" fill="#000000" shape-rendering="crispEdges"/>
  <rect x="31.0344827586207" y="186.206896551724" width="10.3448275862069" height="10.3448275862069" fill="#000000" shape-rendering="crispEdges"/>
  <rect x="31.0344827586207" y="196.551724137931" width="10.3448275862069" height="10.3448275862069" fill="#000000" shape-rendering="crispEdges"/>
  <rect x="31.0344827586207" y="206.896551724138" width="10.3448275862069" height="10.3448275862069" fill="#000000" shape-rendering="crispEdges"/>
  <rect x="31.0344827586207" y="227.586206896552" width="10.3448275862069" height="10.3448275862069" fill="#000000" shape-rendering="crispEdges"/>
  <rect x="31.0344827586207" y="248.275862068966" width="10.3448275862069" height="10.3448275862069" fill="#000000" shape-rendering="crispEdges"/>
  <rect x="31.0344827586207" y="258.620689655172" width="10.3448275862069" height="10.3448275862069" fill="#000000" shape-rendering="crispEdges"/>
  <rect x="31.0344827586207" y="268.965517241379" width="10.3448275862069" height="10.3448275862069" fill="#000000" shape-rendering="crispEdges"/>
  <rect x="31.0344827586207" y="289.655172413793" width="10.3448275862069" height="10.3448275862069" fill="#000000" shape-rendering="crispEdges"/>
  <rect x="41.3793103448276" y="0" width="10.3448275862069" height="10.3448275862069" fill="#000000" shape-rendering="crispEdges"/>
  <rect x="41.3793103448276" y="20.6896551724138" width="10.3448275862069" height="10.3448275862069" fill="#000000" shape-rendering="crispEdges"/>
  <rect x="41.3793103448276" y="31.0344827586207" width="10.3448275862069" height="10.3448275862069" fill="#000000" shape-rendering="crispEdges"/>
  <rect x="41.3793103448276" y="41.3793103448276" width="10.3448275862069" height="10.3448275862069" fill="#000000" shape-rendering="crispEdges"/>
  <rect x="41.3793103448276" y="62.0689655172414" width="10.3448275862069" height="10.3448275862069" fill="#000000" shape-rendering="crispEdges"/>
  <rect x="41.3793103448276" y="113.793103448276" width="10.3448275862069" height="10.3448275862069" fill="#000000" shape-rendering="crispEdges"/>
  <rect x="41.3793103448276" y="124.137931034483" width="10.3448275862069" height="10.3448275862069" fill="#000000" shape-rendering="crispEdges"/>
  <rect x="41.3793103448276" y="134.48275862069" width="10.3448275862069" height="10.3448275862069" fill="#000000" shape-rendering="crispEdges"/>
  <rect x="41.3793103448276" y="155.172413793103" width="10.3448275862069" height="10.3448275862069" fill="#000000" shape-rendering="crispEdges"/>
  <rect x="41.3793103448276" y="165.51724137931" width="10.3448275862069" height="10.3448275862069" fill="#000000" shape-rendering="crispEdges"/>
  <rect x="41.3793103448276" y="175.862068965517" width="10.3448275862069" height="10.3448275862069" fill="#000000" shape-rendering="crispEdges"/>
  <rect x="41.3793103448276" y="227.586206896552" width="10.3448275862069" height="10.3448275862069" fill="#000000" shape-rendering="crispEdges"/>
  <rect x="41.3793103448276" y="248.275862068966" width="10.3448275862069" height="10.3448275862069" fill="#000000" shape-rendering="crispEdges"/>
  <rect x="41.3793103448276" y="258.620689655172" width="10.3448275862069" height="10.3448275862069" fill="#000000" shape-rendering="crispEdges"/>
  <rect x="41.3793103448276" y="268.965517241379" width="10.3448275862069" height="10.3448275862069" fill="#000000" shape-rendering="crispEdges"/>
  <rect x="41.3793103448276" y="289.655172413793" width="10.3448275862069" height="10.3448275862069" fill="#000000" shape-rendering="crispEdges"/>
  <rect x="51.7241379310345" y="0" width="10.3448275862069" height="10.3448275862069" fill="#000000" shape-rendering="crispEdges"/>
  <rect x="51.7241379310345" y="62.0689655172414" width="10.3448275862069" height="10.3448275862069" fill="#000000" shape-rendering="crispEdges"/>
  <rect x="51.7241379310345" y="82.7586206896552" width="10.3448275862069" height="10.3448275862069" fill="#000000" shape-rendering="crispEdges"/>
  <rect x="51.7241379310345" y="93.1034482758621" width="10.3448275862069" height="10.3448275862069" fill="#000000" shape-rendering="crispEdges"/>
  <rect x="51.7241379310345" y="103.448275862069" width="10.3448275862069" height="10.3448275862069" fill="#000000" shape-rendering="crispEdges"/>
  <rect x="51.7241379310345" y="124.137931034483" width="10.3448275862069" height="10.3448275862069" fill="#000000" shape-rendering="crispEdges"/>
  <rect x="51.7241379310345" y="186.206896551724" width="10.3448275862069" height="10.3448275862069" fill="#000000" shape-rendering="crispEdges"/>
  <rect x="51.7241379310345" y="206.896551724138" width="10.3448275862069" height="10.3448275862069" fill="#000000" shape-rendering="crispEdges"/>
  <rect x="51.7241379310345" y="227.586206896552" width="10.3448275862069" height="10.3448275862069" fill="#000000" shape-rendering="crispEdges"/>
  <rect x="51.7241379310345" y="289.655172413793" width="10.3448275862069" height="10.3448275862069" fill="#000000" shape-rendering="crispEdges"/>
  <rect x="62.0689655172414" y="0" width="10.3448275862069" height="10.3448275862069" fill="#000000" shape-rendering="crispEdges"/>
  <rect x="62.0689655172414" y="10.3448275862069" width="10.3448275862069" height="10.3448275862069" fill="#000000" shape-rendering="crispEdges"/>
  <rect x="62.0689655172414" y="20.6896551724138" width="10.3448275862069" height="10.3448275862069" fill="#000000" shape-rendering="crispEdges"/>
  <rect x="62.0689655172414" y="31.0344827586207" width="10.3448275862069" height="10.3448275862069" fill="#000000" shape-rendering="crispEdges"/>
  <rect x="62.0689655172414" y="41.3793103448276" width="10.3448275862069" height="10.3448275862069" fill="#000000" shape-rendering="crispEdges"/>
  <rect x="62.0689655172414" y="51.7241379310345" width="10.3448275862069" height="10.3448275862069" fill="#000000" shape-rendering="crispEdges"/>
  <rect x="62.0689655172414" y="62.0689655172414" width="10.3448275862069" height="10.3448275862069" fill="#000000" shape-rendering="crispEdges"/>
  <rect x="62.0689655172414" y="82.7586206896552" width="10.3448275862069" height="10.3448275862069" fill="#000000" shape-rendering="crispEdges"/>
  <rect x="62.0689655172414" y="103.448275862069" width="10.3448275862069" height="10.3448275862069" fill="#000000" shape-rendering="crispEdges"/>
  <rect x="62.0689655172414" y="124.137931034483" width="10.3448275862069" height="10.3448275862069" fill="#000000" shape-rendering="crispEdges"/>
  <rect x="62.0689655172414" y="144.827586206897" width="10.3448275862069" height="10.3448275862069" fill="#000000" shape-rendering="crispEdges"/>
  <rect x="62.0689655172414" y="165.51724137931" width="10.3448275862069" height="10.3448275862069" fill="#000000" shape-rendering="crispEdges"/>
  <rect x="62.0689655172414" y="186.206896551724" width="10.3448275862069" height="10.3448275862069" fill="#000000" shape-rendering="crispEdges"/>
  <rect x="62.0689655172414" y="206.896551724138" width="10.3448275862069" height="10.3448275862069" fill="#000000" shape-rendering="crispEdges"/>
  <rect x="62.0689655172414" y="227.586206896552" width="10.3448275862069" height="10.3448275862069" fill="#000000" shape-rendering="crispEdges"/>
  <rect x="62.0689655172414" y="237.931034482759" width="10.3448275862069" height="10.3448275862069" fill="#000000" shape-rendering="crispEdges"/>
  <rect x="62.0689655172414" y="248.275862068966" width="10.3448275862069" height="10.3448275862069" fill="#000000" shape-rendering="crispEdges"/>
  <rect x="62.0689655172414" y="258.620689655172" width="10.3448275862069" height="10.3448275862069" fill="#000000" shape-rendering="crispEdges"/>
  <rect x="62.0689655172414" y="268.965517241379" width="10.3448275862069" height="10.3448275862069" fill="#000000" shape-rendering="crispEdges"/>
  <rect x="62.0689655172414" y="279.310344827586" width="10.3448275862069" height="10.3448275862069" fill="#000000" shape-rendering="crispEdges"/>
  <rect x="62.0689655172414" y="289.655172413793" width="10.3448275862069" height="10.3448275862069" fill="#000000" shape-rendering="crispEdges"/>
  <rect x="72.4137931034483" y="82.7586206896552" width="10.3448275862069" height="10.3448275862069" fill="#000000" shape-rendering="crispEdges"/>
  <rect x="72.4137931034483" y="93.1034482758621" width="10.3448275862069" height="10.3448275862069" fill="#000000" shape-rendering="crispEdges"/>
  <rect x="72.4137931034483" y="144.827586206897" width="10.3448275862069" height="10.3448275862069" fill="#000000" shape-rendering="crispEdges"/>
  <rect x="72.4137931034483" y="155.172413793103" width="10.3448275862069" height="10.3448275862069" fill="#000000" shape-rendering="crispEdges"/>
  <rect x="72.4137931034483" y="175.862068965517" width="10.3448275862069" height="10.3448275862069" fill="#000000" shape-rendering="crispEdges"/>
  <rect x="82.7586206896552" y="31.0344827586207" width="10.3448275862069" height="10.3448275862069" fill="#000000" shape-rendering="crispEdges"/>
  <rect x="82.7586206896552" y="41.3793103448276" width="10.3448275862069" height="10.3448275862069" fill="#000000" shape-rendering="crispEdges"/>
  <rect x="82.7586206896552" y="62.0689655172414" width="10.3448275862069" height="10.3448275862069" fill="#000000" shape-rendering="crispEdges"/>
  <rect x="82.7586206896552" y="93.1034482758621" width="10.3448275862069" height="10.3448275862069" fill="#000000" shape-rendering="crispEdges"/>
  <rect x="82.7586206896552" y="103.448275862069" width="10.3448275862069" height="10.3448275862069" fill="#000000" shape-rendering="crispEdges"/>
  <rect x="82.7586206896552" y="113.793103448276" width="10.3448275862069" height="10.3448275862069" fill="#000000" shape-rendering="crispEdges"/>
  <rect x="82.7586206896552" y="124.137931034483" width="10.3448275862069" height="10.3448275862069" fill="#000000" shape-rendering="crispEdges"/>
  <rect x="82.7586206896552" y="134.48275862069" width="10.3448275862069" height="10.3448275862069" fill="#000000" shape-rendering="crispEdges"/>
  <rect x="82.7586206896552" y="155.172413793103" width="10.3448275862069" height="10.3448275862069" fill="#000000" shape-rendering="crispEdges"/>
  <rect x="82.7586206896552" y="165.51724137931" width="10.3448275862069" height="10.3448275862069" fill="#000000" shape-rendering="crispEdges"/>
  <rect x="82.7586206896552" y="175.862068965517" width="10.3448275862069" height="10.3448275862069" fill="#000000" shape-rendering="crispEdges"/>
  <rect x="82.7586206896552" y="217.241379310345" width="10.3448275862069" height="10.3448275862069" fill="#000000" shape-rendering="crispEdges"/>
  <rect x="82.7586206896552" y="227.586206896552" width="10.3448275862069" height="10.3448275862069" fill="#000000" shape-rendering="crispEdges"/>
  <rect x="82.7586206896552" y="237.931034482759" width="10.3448275862069" height="10.3448275862069" fill="#000000" shape-rendering="crispEdges"/>
  <rect x="82.7586206896552" y="279.310344827586" width="10.3448275862069" height="10.3448275862069" fill="#000000" shape-rendering="crispEdges"/>
  <rect x="82.7586206896552" y="289.655172413793" width="10.3448275862069" height="10.3448275862069" fill="#000000" shape-rendering="crispEdges"/>
  <rect x="93.1034482758621" y="0" width="10.3448275862069" height="10.3448275862069" fill="#000000" shape-rendering="crispEdges"/>
  <rect x="93.1034482758621" y="20.6896551724138" width="10.3448275862069" height="10.3448275862069" fill="#000000" shape-rendering="crispEdges"/>
  <rect x="93.1034482758621" y="51.7241379310345" width="10.3448275862069" height="10.3448275862069" fill="#000000" shape-rendering="crispEdges"/>
  <rect x="93.1034482758621" y="72.4137931034483" width="10.3448275862069" height="10.3448275862069" fill="#000000" shape-rendering="crispEdges"/>
  <rect x="93.1034482758621" y="82.7586206896552" width="10.3448275862069" height="10.3448275862069" fill="#000000" shape-rendering="crispEdges"/>
  <rect x="93.1034482758621" y="103.448275862069" width="10.3448275862069" height="10.3448275862069" fill="#000000" shape-rendering="crispEdges"/>
  <rect x="93.1034482758621" y="124.137931034483" width="10.3448275862069" height="10.3448275862069" fill="#000000" shape-rendering="crispEdges"/>
  <rect x="93.1034482758621" y="155.172413793103" width="10.3448275862069" height="10.3448275862069" fill="#000000" shape-rendering="crispEdges"/>
  <rect x="93.1034482758621" y="175.862068965517" width="10.3448275862069" height="10.3448275862069" fill="#000000" shape-rendering="crispEdges"/>
  <rect x="93.1034482758621" y="196.551724137931" width="10.3448275862069" height="10.3448275862069" fill="#000000" shape-rendering="crispEdges"/>
  <rect x="93.1034482758621" y="206.896551724138" width="10.3448275862069" height="10.3448275862069" fill="#000000" shape-rendering="crispEdges"/>
  <rect x="93.1034482758621" y="217.241379310345" width="10.3448275862069" height="10.3448275862069" fill="#000000" shape-rendering="crispEdges"/>
  <rect x="93.1034482758621" y="268.965517241379" width="10.3448275862069" height="10.3448275862069" fill="#000000" shape-rendering="crispEdges"/>
  <rect x="103.448275862069" y="0" width="10.3448275862069" height="10.3448275862069" fill="#000000" shape-rendering="crispEdges"/>
  <rect x="103.448275862069" y="20.6896551724138" width="10.3448275862069" height="10.3448275862069" fill="#000000" shape-rendering="crispEdges"/>
  <rect x="103.448275862069" y="31.0344827586207" width="10.3448275862069" height="10.3448275862069" fill="#000000" shape-rendering="crispEdges"/>
  <rect x="103.448275862069" y="41.3793103448276" width="10.3448275862069" height="10.3448275862069" fill="#000000" shape-rendering="crispEdges"/>
  <rect x="103.448275862069" y="51.7241379310345" width="10.3448275862069" height="10.3448275862069" fill="#000000" shape-rendering="crispEdges"/>
  <rect x="103.448275862069" y="62.0689655172414" width="10.3448275862069" height="10.3448275862069" fill="#000000" shape-rendering="crispEdges"/>
  <rect x="103.448275862069" y="82.7586206896552" width="10.3448275862069" height="10.3448275862069" fill="#000000" shape-rendering="crispEdges"/>
  <rect x="103.448275862069" y="93.1034482758621" width="10.3448275862069" height="10.3448275862069" fill="#000000" shape-rendering="crispEdges"/>
  <rect x="103.448275862069" y="113.793103448276" width="10.3448275862069" height="10.3448275862069" fill="#000000" shape-rendering="crispEdges"/>
  <rect x="103.448275862069" y="124.137931034483" width="10.3448275862069" height="10.3448275862069" fill="#000000" shape-rendering="crispEdges"/>
  <rect x="103.448275862069" y="134.48275862069" width="10.3448275862069" height="10.3448275862069" fill="#000000" shape-rendering="crispEdges"/>
  <rect x="103.448275862069" y="155.172413793103" width="10.3448275862069" height="10.3448275862069" fill="#000000" shape-rendering="crispEdges"/>
  <rect x="103.448275862069" y="165.51724137931" width="10.3448275862069" height="10.3448275862069" fill="#000000" shape-rendering="crispEdges"/>
  <rect x="103.448275862069" y="175.862068965517" width="10.3448275862069" height="10.3448275862069" fill="#000000" shape-rendering="crispEdges"/>
  <rect x="103.448275862069" y="186.206896551724" width="10.3448275862069" height="10.3448275862069" fill="#000000" shape-rendering="crispEdges"/>
  <rect x="103.448275862069" y="196.551724137931" width="10.3448275862069" height="10.3448275862069" fill="#000000" shape-rendering="crispEdges"/>
  <rect x="103.448275862069" y="206.896551724138" width="10.3448275862069" height="10.3448275862069" fill="#000000" shape-rendering="crispEdges"/>
  <rect x="103.448275862069" y="237.931034482759" width="10.3448275862069" height="10.3448275862069" fill="#000000" shape-rendering="crispEdges"/>
  <rect x="103.448275862069" y="248.275862068966" width="10.3448275862069" height="10.3448275862069" fill="#000000" shape-rendering="crispEdges"/>
  <rect x="103.448275862069" y="268.965517241379" width="10.3448275862069" height="10.3448275862069" fill="#000000" shape-rendering="crispEdges"/>
  <rect x="113.793103448276" y="0" width="10.3448275862069" height="10.3448275862069" fill="#000000" shape-rendering="crispEdges"/>
  <rect x="113.793103448276" y="10.3448275862069" width="10.3448275862069" height="10.3448275862069" fill="#000000" shape-rendering="crispEdges"/>
  <rect x="113.793103448276" y="20.6896551724138" width="10.3448275862069" height="10.3448275862069" fill="#000000" shape-rendering="crispEdges"/>
  <rect x="113.793103448276" y="31.0344827586207" width="10.3448275862069" height="10.3448275862069" fill="#000000" shape-rendering="crispEdges"/>
  <rect x="113.793103448276" y="103.448275862069" width="10.3448275862069" height="10.3448275862069" fill="#000000" shape-rendering="crispEdges"/>
  <rect x="113.793103448276" y="113.793103448276" width="10.3448275862069" height="10.3448275862069" fill="#000000" shape-rendering="crispEdges"/>
  <rect x="113.793103448276" y="196.551724137931" width="10.3448275862069" height="10.3448275862069" fill="#000000" shape-rendering="crispEdges"/>
  <rect x="113.793103448276" y="206.896551724138" width="10.3448275862069" height="10.3448275862069" fill="#000000" shape-rendering="crispEdges"/>
  <rect x="113.793103448276" y="248.275862068966" width="10.3448275862069" height="10.3448275862069" fill="#000000" shape-rendering="crispEdges"/>
  <rect x="113.793103448276" y="268.965517241379" width="10.3448275862069" height="10.3448275862069" fill="#000000" shape-rendering="crispEdges"/>
  <rect x="113.793103448276" y="279.310344827586" width="10.3448275862069" height="10.3448275862069" fill="#000000" shape-rendering="crispEdges"/>
  <rect x="113.793103448276" y="289.655172413793" width="10.3448275862069" height="10.3448275862069" fill="#000000" shape-rendering="crispEdges"/>
  <rect x="124.137931034483" y="10.3448275862069" width="10.3448275862069" height="10.3448275862069" fill="#000000" shape-rendering="crispEdges"/>
  <rect x="124.137931034483" y="41.3793103448276" width="10.3448275862069" height="10.3448275862069" fill="#000000" shape-rendering="crispEdges"/>
  <rect x="124.137931034483" y="62.0689655172414" width="10.3448275862069" height="10.3448275862069" fill="#000000" shape-rendering="crispEdges"/>
  <rect x="124.137931034483" y="72.4137931034483" width="10.3448275862069" height="10.3448275862069" fill="#000000" shape-rendering="crispEdges"/>
  <rect x="124.137931034483" y="82.7586206896552" width="10.3448275862069" height="10.3448275862069" fill="#000000" shape-rendering="crispEdges"/>
  <rect x="124.137931034483" y="103.448275862069" width="10.3448275862069" height="10.3448275862069" fill="#000000" shape-rendering="crispEdges"/>
  <rect x="124.137931034483" y="134.48275862069" width="10.3448275862069" height="10.3448275862069" fill="#000000" shape-rendering="crispEdges"/>
  <rect x="124.137931034483" y="155.172413793103" width="10.3448275862069" height="10.3448275862069" fill="#000000" shape-rendering="crispEdges"/>
  <rect x="124.137931034483" y="165.51724137931" width="10.3448275862069" height="10.3448275862069" fill="#000000" shape-rendering="crispEdges"/>
  <rect x="124.137931034483" y="186.206896551724" width="10.3448275862069" height="10.3448275862069" fill="#000000" shape-rendering="crispEdges"/>
  <rect x="124.137931034483" y="217.241379310345" width="10.3448275862069" height="10.3448275862069" fill="#000000" shape-rendering="crispEdges"/>
  <rect x="124.137931034483" y="237.931034482759" width="10.3448275862069" height="10.3448275862069" fill="#000000" shape-rendering="crispEdges"/>
  <rect x="124.137931034483" y="248.275862068966" width="10.3448275862069" height="10.3448275862069" fill="#000000" shape-rendering="crispEdges"/>
  <rect x="124.137931034483" y="268.965517241379" width="10.3448275862069" height="10.3448275862069" fill="#000000" shape-rendering="crispEdges"/>
  <rect x="134.48275862069" y="31.0344827586207" width="10.3448275862069" height="10.3448275862069" fill="#000000" shape-rendering="crispEdges"/>
  <rect x="134.48275862069" y="51.7241379310345" width="10.3448275862069" height="10.3448275862069" fill="#000000" shape-rendering="crispEdges"/>
  <rect x="134.48275862069" y="82.7586206896552" width="10.3448275862069" height="10.3448275862069" fill="#000000" shape-rendering="crispEdges"/>
  <rect x="134.48275862069" y="103.448275862069" width="10.3448275862069" height="10.3448275862069" fill="#000000" shape-rendering="crispEdges"/>
  <rect x="134.48275862069" y="134.48275862069" width="10.3448275862069" height="10.3448275862069" fill="#000000" shape-rendering="crispEdges"/>
  <rect x="134.48275862069" y="144.827586206897" width="10.3448275862069" height="10.3448275862069" fill="#000000" shape-rendering="crispEdges"/>
  <rect x="134.48275862069" y="165.51724137931" width="10.3448275862069" height="10.3448275862069" fill="#000000" shape-rendering="crispEdges"/>
  <rect x="134.48275862069" y="217.241379310345" width="10.3448275862069" height="10.3448275862069" fill="#000000" shape-rendering="crispEdges"/>
  <rect x="134.48275862069" y="227.586206896552" width="10.3448275862069" height="10.3448275862069" fill="#000000" shape-rendering="crispEdges"/>
  <rect x="134.48275862069" y="237.931034482759" width="10.3448275862069" height="10.3448275862069" fill="#000000" shape-rendering="crispEdges"/>
  <rect x="134.48275862069" y="248.275862068966" width="10.3448275862069" height="10.3448275862069" fill="#000000" shape-rendering="crispEdges"/>
  <rect x="144.827586206897" y="0" width="10.3448275862069" height="10.3448275862069" fill="#000000" shape-rendering="crispEdges"/>
  <rect x="144.827586206897" y="10.3448275862069" width="10.3448275862069" height="10.3448275862069" fill="#000000" shape-rendering="crispEdges"/>
  <rect x="144.827586206897" y="20.6896551724138" width="10.3448275862069" height="10.3448275862069" fill="#000000" shape-rendering="crispEdges"/>
  <rect x="144.827586206897" y="41.3793103448276" width="10.3448275862069" height="10.3448275862069" fill="#000000" shape-rendering="crispEdges"/>
  <rect x="144.827586206897" y="62.0689655172414" width="10.3448275862069" height="10.3448275862069" fill="#000000" shape-rendering="crispEdges"/>
  <rect x="144.827586206897" y="72.4137931034483" width="10.3448275862069" height="10.3448275862069" fill="#000000" shape-rendering="crispEdges"/>
  <rect x="144.827586206897" y="82.7586206896552" width="10.3448275862069" height="10.3448275862069" fill="#000000" shape-rendering="crispEdges"/>
  <rect x="144.827586206897" y="113.793103448276" width="10.3448275862069" height="10.3448275862069" fill="#000000" shape-rendering="crispEdges"/>
  <rect x="144.827586206897" y="155.172413793103" width="10.3448275862069" height="10.3448275862069" fill="#000000" shape-rendering="crispEdges"/>
  <rect x="144.827586206897" y="165.51724137931" width="10.3448275862069" height="10.3448275862069" fill="#000000" shape-rendering="crispEdges"/>
  <rect x="144.827586206897" y="175.862068965517" width="10.3448275862069" height="10.3448275862069" fill="#000000" shape-rendering="crispEdges"/>
  <rect x="144.827586206897" y="186.206896551724" width="10.3448275862069" height="10.3448275862069" fill="#000000" shape-rendering="crispEdges"/>
  <rect x="144.827586206897" y="196.551724137931" width="10.3448275862069" height="10.3448275862069" fill="#000000" shape-rendering="crispEdges"/>
  <rect x="144.827586206897" y="217.241379310345" width="10.3448275862069" height="10.3448275862069" fill="#000000" shape-rendering="crispEdges"/>
  <rect x="144.827586206897" y="227.586206896552" width="10.3448275862069" height="10.3448275862069" fill="#000000" shape-rendering="crispEdges"/>
  <rect x="155.172413793103" y="93.1034482758621" width="10.3448275862069" height="10.3448275862069" fill="#000000" shape-rendering="crispEdges"/>
  <rect x="155.172413793103" y="103.448275862069" width="10.3448275862069" height="10.3448275862069" fill="#000000" shape-rendering="crispEdges"/>
  <rect x="155.172413793103" y="113.793103448276" width="10.3448275862069" height="10.3448275862069" fill="#000000" shape-rendering="crispEdges"/>
  <rect x="155.172413793103" y="124.137931034483" width="10.3448275862069" height="10.3448275862069" fill="#000000" shape-rendering="crispEdges"/>
  <rect x="155.172413793103" y="134.48275862069" width="10.3448275862069" height="10.3448275862069" fill="#000000" shape-rendering="crispEdges"/>
  <rect x="155.172413793103" y="144.827586206897" width="10.3448275862069" height="10.3448275862069" fill="#000000" shape-rendering="crispEdges"/>
  <rect x="155.172413793103" y="155.172413793103" width="10.3448275862069" height="10.3448275862069" fill="#000000" shape-rendering="crispEdges"/>
  <rect x="155.172413793103" y="165.51724137931" width="10.3448275862069" height="10.3448275862069" fill="#000000" shape-rendering="crispEdges"/>
  <rect x="155.172413793103" y="175.862068965517" width="10.3448275862069" height="10.3448275862069" fill="#000000" shape-rendering="crispEdges"/>
  <rect x="155.172413793103" y="186.206896551724" width="10.3448275862069" height="10.3448275862069" fill="#000000" shape-rendering="crispEdges"/>
  <rect x="155.172413793103" y="217.241379310345" width="10.3448275862069" height="10.3448275862069" fill="#000000" shape-rendering="crispEdges"/>
  <rect x="155.172413793103" y="227.586206896552" width="10.3448275862069" height="10.3448275862069" fill="#000000" shape-rendering="crispEdges"/>
  <rect x="155.172413793103" y="248.275862068966" width="10.3448275862069" height="10.3448275862069" fill="#000000" shape-rendering="crispEdges"/>
  <rect x="155.172413793103" y="258.620689655172" width="10.3448275862069" height="10.3448275862069" fill="#000000" shape-rendering="crispEdges"/>
  <rect x="155.172413793103" y="268.965517241379" width="10.3448275862069" height="10.3448275862069" fill="#000000" shape-rendering="crispEdges"/>
  <rect x="155.172413793103" y="289.655172413793" width="10.3448275862069" height="10.3448275862069" fill="#000000" shape-rendering="crispEdges"/>
  <rect x="165.51724137931" y="0" width="10.3448275862069" height="10.3448275862069" fill="#000000" shape-rendering="crispEdges"/>
  <rect x="165.51724137931" y="10.3448275862069" width="10.3448275862069" height="10.3448275862069" fill="#000000" shape-rendering="crispEdges"/>
  <rect x="165.51724137931" y="31.0344827586207" width="10.3448275862069" height="10.3448275862069" fill="#000000" shape-rendering="crispEdges"/>
  <rect x="165.51724137931" y="41.3793103448276" width="10.3448275862069" height="10.3448275862069" fill="#000000" shape-rendering="crispEdges"/>
  <rect x="165.51724137931" y="51.7241379310345" width="10.3448275862069" height="10.3448275862069" fill="#000000" shape-rendering="crispEdges"/>
  <rect x="165.51724137931" y="62.0689655172414" width="10.3448275862069" height="10.3448275862069" fill="#000000" shape-rendering="crispEdges"/>
  <rect x="165.51724137931" y="72.4137931034483" width="10.3448275862069" height="10.3448275862069" fill="#000000" shape-rendering="crispEdges"/>
  <rect x="165.51724137931" y="113.793103448276" width="10.3448275862069" height="10.3448275862069" fill="#000000" shape-rendering="crispEdges"/>
  <rect x="165.51724137931" y="124.137931034483" width="10.3448275862069" height="10.3448275862069" fill="#000000" shape-rendering="crispEdges"/>
  <rect x="165.51724137931" y="134.48275862069" width="10.3448275862069" height="10.3448275862069" fill="#000000" shape-rendering="crispEdges"/>
  <rect x="165.51724137931" y="144.827586206897" width="10.3448275862069" height="10.3448275862069" fill="#000000" shape-rendering="crispEdges"/>
  <rect x="165.51724137931" y="155.172413793103" width="10.3448275862069" height="10.3448275862069" fill="#000000" shape-rendering="crispEdges"/>
  <rect x="165.51724137931" y="165.51724137931" width="10.3448275862069" height="10.3448275862069" fill="#000000" shape-rendering="crispEdges"/>
  <rect x="165.51724137931" y="175.862068965517" width="10.3448275862069" height="10.3448275862069" fill="#000000" shape-rendering="crispEdges"/>
  <rect x="165.51724137931" y="196.551724137931" width="10.3448275862069" height="10.3448275862069" fill="#000000" shape-rendering="crispEdges"/>
  <rect x="165.51724137931" y="217.241379310345" width="10.3448275862069" height="10.3448275862069" fill="#000000" shape-rendering="crispEdges"/>
  <rect x="165.51724137931" y="227.586206896552" width="10.3448275862069" height="10.3448275862069" fill="#000000" shape-rendering="crispEdges"/>
  <rect x="165.51724137931" y="237.931034482759" width="10.3448275862069" height="10.3448275862069" fill="#000000" shape-rendering="crispEdges"/>
  <rect x="165.51724137931" y="248.275862068966" width="10.3448275862069" height="10.3448275862069" fill="#000000" shape-rendering="crispEdges"/>
  <rect x="165.51724137931" y="258.620689655172" width="10.3448275862069" height="10.3448275862069" fill="#000000" shape-rendering="crispEdges"/>
  <rect x="175.862068965517" y="0" width="10.3448275862069" height="10.3448275862069" fill="#000000" shape-rendering="crispEdges"/>
  <rect x="175.862068965517" y="31.0344827586207" width="10.3448275862069" height="10.3448275862069" fill="#000000" shape-rendering="crispEdges"/>
  <rect x="175.862068965517" y="82.7586206896552" width="10.3448275862069" height="10.3448275862069" fill="#000000" shape-rendering="crispEdges"/>
  <rect x="175.862068965517" y="93.1034482758621" width="10.3448275862069" height="10.3448275862069" fill="#000000" shape-rendering="crispEdges"/>
  <rect x="175.862068965517" y="103.448275862069" width="10.3448275862069" height="10.3448275862069" fill="#000000" shape-rendering="crispEdges"/>
  <rect x="175.862068965517" y="165.51724137931" width="10.3448275862069" height="10.3448275862069" fill="#000000" shape-rendering="crispEdges"/>
  <rect x="175.862068965517" y="206.896551724138" width="10.3448275862069" height="10.3448275862069" fill="#000000" shape-rendering="crispEdges"/>
  <rect x="175.862068965517" y="227.586206896552" width="10.3448275862069" height="10.3448275862069" fill="#000000" shape-rendering="crispEdges"/>
  <rect x="175.862068965517" y="258.620689655172" width="10.3448275862069" height="10.3448275862069" fill="#000000" shape-rendering="crispEdges"/>
  <rect x="175.862068965517" y="268.965517241379" width="10.3448275862069" height="10.3448275862069" fill="#000000" shape-rendering="crispEdges"/>
  <rect x="175.862068965517" y="289.655172413793" width="10.3448275862069" height="10.3448275862069" fill="#000000" shape-rendering="crispEdges"/>
  <rect x="186.206896551724" y="0" width="10.3448275862069" height="10.3448275862069" fill="#000000" shape-rendering="crispEdges"/>
  <rect x="186.206896551724" y="41.3793103448276" width="10.3448275862069" height="10.3448275862069" fill="#000000" shape-rendering="crispEdges"/>
  <rect x="186.206896551724" y="62.0689655172414" width="10.3448275862069" height="10.3448275862069" fill="#000000" shape-rendering="crispEdges"/>
  <rect x="186.206896551724" y="72.4137931034483" width="10.3448275862069" height="10.3448275862069" fill="#000000" shape-rendering="crispEdges"/>
  <rect x="186.206896551724" y="82.7586206896552" width="10.3448275862069" height="10.3448275862069" fill="#000000" shape-rendering="crispEdges"/>
  <rect x="186.206896551724" y="93.1034482758621" width="10.3448275862069" height="10.3448275862069" fill="#000000" shape-rendering="crispEdges"/>
  <rect x="186.206896551724" y="144.827586206897" width="10.3448275862069" height="10.3448275862069" fill="#000000" shape-rendering="crispEdges"/>
  <rect x="186.206896551724" y="186.206896551724" width="10.3448275862069" height="10.3448275862069" fill="#000000" shape-rendering="crispEdges"/>
  <rect x="186.206896551724" y="196.551724137931" width="10.3448275862069" height="10.3448275862069" fill="#000000" shape-rendering="crispEdges"/>
  <rect x="186.206896551724" y="217.241379310345" width="10.3448275862069" height="10.3448275862069" fill="#000000" shape-rendering="crispEdges"/>
  <rect x="186.206896551724" y="227.586206896552" width="10.3448275862069" height="10.3448275862069" fill="#000000" shape-rendering="crispEdges"/>
  <rect x="186.206896551724" y="258.620689655172" width="10.3448275862069" height="10.3448275862069" fill="#000000" shape-rendering="crispEdges"/>
  <rect x="196.551724137931" y="31.0344827586207" width="10.3448275862069" height="10.3448275862069" fill="#000000" shape-rendering="crispEdges"/>
  <rect x="196.551724137931" y="41.3793103448276" width="10.3448275862069" height="10.3448275862069" fill="#000000" shape-rendering="crispEdges"/>
  <rect x="196.551724137931" y="93.1034482758621" width="10.3448275862069" height="10.3448275862069" fill="#000000" shape-rendering="crispEdges"/>
  <rect x="196.551724137931" y="113.793103448276" width="10.3448275862069" height="10.3448275862069" fill="#000000" shape-rendering="crispEdges"/>
  <rect x="196.551724137931" y="134.48275862069" width="10.3448275862069" height="10.3448275862069" fill="#000000" shape-rendering="crispEdges"/>
  <rect x="196.551724137931" y="155.172413793103" width="10.3448275862069" height="10.3448275862069" fill="#000000" shape-rendering="crispEdges"/>
  <rect x="196.551724137931" y="165.51724137931" width="10.3448275862069" height="10.3448275862069" fill="#000000" shape-rendering="crispEdges"/>
  <rect x="196.551724137931" y="175.862068965517" width="10.3448275862069" height="10.3448275862069" fill="#000000" shape-rendering="crispEdges"/>
  <rect x="196.551724137931" y="186.206896551724" width="10.3448275862069" height="10.3448275862069" fill="#000000" shape-rendering="crispEdges"/>
  <rect x="196.551724137931" y="206.896551724138" width="10.3448275862069" height="10.3448275862069" fill="#000000" shape-rendering="crispEdges"/>
  <rect x="196.551724137931" y="227.586206896552" width="10.3448275862069" height="10.3448275862069" fill="#000000" shape-rendering="crispEdges"/>
  <rect x="196.551724137931" y="237.931034482759" width="10.3448275862069" height="10.3448275862069" fill="#000000" shape-rendering="crispEdges"/>
  <rect x="196.551724137931" y="248.275862068966" width="10.3448275862069" height="10.3448275862069" fill="#000000" shape-rendering="crispEdges"/>
  <rect x="196.551724137931" y="258.620689655172" width="10.3448275862069" height="10.3448275862069" fill="#000000" shape-rendering="crispEdges"/>
  <rect x="196.551724137931" y="268.965517241379" width="10.3448275862069" height="10.3448275862069" fill="#000000" shape-rendering="crispEdges"/>
  <rect x="196.551724137931" y="289.655172413793" width="10.3448275862069" height="10.3448275862069" fill="#000000" shape-rendering="crispEdges"/>
  <rect x="206.896551724138" y="10.3448275862069" width="10.3448275862069" height="10.3448275862069" fill="#000000" shape-rendering="crispEdges"/>
  <rect x="206.896551724138" y="20.6896551724138" width="10.3448275862069" height="10.3448275862069" fill="#000000" shape-rendering="crispEdges"/>
  <rect x="206.896551724138" y="31.0344827586207" width="10.3448275862069" height="10.3448275862069" fill="#000000" shape-rendering="crispEdges"/>
  <rect x="206.896551724138" y="62.0689655172414" width="10.3448275862069" height="10.3448275862069" fill="#000000" shape-rendering="crispEdges"/>
  <rect x="206.896551724138" y="82.7586206896552" width="10.3448275862069" height="10.3448275862069" fill="#000000" shape-rendering="crispEdges"/>
  <rect x="206.896551724138" y="124.137931034483" width="10.3448275862069" height="10.3448275862069" fill="#000000" shape-rendering="crispEdges"/>
  <rect x="206.896551724138" y="134.48275862069" width="10.3448275862069" height="10.3448275862069" fill="#000000" shape-rendering="crispEdges"/>
  <rect x="206.896551724138" y="144.827586206897" width="10.3448275862069" height="10.3448275862069" fill="#000000" shape-rendering="crispEdges"/>
  <rect x="206.896551724138" y="196.551724137931" width="10.3448275862069" height="10.3448275862069" fill="#000000" shape-rendering="crispEdges"/>
  <rect x="206.896551724138" y="206.896551724138" width="10.3448275862069" height="10.3448275862069" fill="#000000" shape-rendering="crispEdges"/>
  <rect x="206.896551724138" y="217.241379310345" width="10.3448275862069" height="10.3448275862069" fill="#000000" shape-rendering="crispEdges"/>
  <rect x="206.896551724138" y="227.586206896552" width="10.3448275862069" height="10.3448275862069" fill="#000000" shape-rendering="crispEdges"/>
  <rect x="206.896551724138" y="237.931034482759" width="10.3448275862069" height="10.3448275862069" fill="#000000" shape-rendering="crispEdges"/>
  <rect x="206.896551724138" y="248.275862068966" width="10.3448275862069" height="10.3448275862069" fill="#000000" shape-rendering="crispEdges"/>
  <rect x="206.896551724138" y="258.620689655172" width="10.3448275862069" height="10.3448275862069" fill="#000000" shape-rendering="crispEdges"/>
  <rect x="206.896551724138" y="268.965517241379" width="10.3448275862069" height="10.3448275862069" fill="#000000" shape-rendering="crispEdges"/>
  <rect x="217.241379310345" y="93.1034482758621" width="10.3448275862069" height="10.3448275862069" fill="#000000" shape-rendering="crispEdges"/>
  <rect x="217.241379310345" y="113.793103448276" width="10.3448275862069" height="10.3448275862069" fill="#000000" shape-rendering="crispEdges"/>
  <rect x="217.241379310345" y="144.827586206897" width="10.3448275862069" height="10.3448275862069" fill="#000000" shape-rendering="crispEdges"/>
  <rect x="217.241379310345" y="165.51724137931" width="10.3448275862069" height="10.3448275862069" fill="#000000" shape-rendering="crispEdges"/>
  <rect x="217.241379310345" y="206.896551724138" width="10.3448275862069" height="10.3448275862069" fill="#000000" shape-rendering="crispEdges"/>
  <rect x="217.241379310345" y="248.275862068966" width="10.3448275862069" height="10.3448275862069" fill="#000000" shape-rendering="crispEdges"/>
  <rect x="217.241379310345" y="258.620689655172" width="10.3448275862069" height="10.3448275862069" fill="#000000" shape-rendering="crispEdges"/>
  <rect x="217.241379310345" y="268.965517241379" width="10.3448275862069" height="10.3448275862069" fill="#000000" shape-rendering="crispEdges"/>
  <rect x="227.586206896552" y="0" width="10.3448275862069" height="10.3448275862069" fill="#000000" shape-rendering="crispEdges"/>
  <rect x="227.586206896552" y="10.3448275862069" width="10.3448275862069" height="10.3448275862069" fill="#000000" shape-rendering="crispEdges"/>
  <rect x="227.586206896552" y="20.6896551724138" width="10.3448275862069" height="10.3448275862069" fill="#000000" shape-rendering="crispEdges"/>
  <rect x="227.586206896552" y="31.0344827586207" width="10.3448275862069" height="10.3448275862069" fill="#000000" shape-rendering="crispEdges"/>
  <rect x="227.586206896552" y="41.3793103448276" width="10.3448275862069" height="10.3448275862069" fill="#000000" shape-rendering="crispEdges"/>
  <rect x="227.586206896552" y="51.7241379310345" width="10.3448275862069" height="10.3448275862069" fill="#000000" shape-rendering="crispEdges"/>
  <rect x="227.586206896552" y="62.0689655172414" width="10.3448275862069" height="10.3448275862069" fill="#000000" shape-rendering="crispEdges"/>
  <rect x="227.586206896552" y="124.137931034483" width="10.3448275862069" height="10.3448275862069" fill="#000000" shape-rendering="crispEdges"/>
  <rect x="227.586206896552" y="134.48275862069" width="10.3448275862069" height="10.3448275862069" fill="#000000" shape-rendering="crispEdges"/>
  <rect x="227.586206896552" y="175.862068965517" width="10.3448275862069" height="10.3448275862069" fill="#000000" shape-rendering="crispEdges"/>
  <rect x="227.586206896552" y="196.551724137931" width="10.3448275862069" height="10.3448275862069" fill="#000000" shape-rendering="crispEdges"/>
  <rect x="227.586206896552" y="206.896551724138" width="10.3448275862069" height="10.3448275862069" fill="#000000" shape-rendering="crispEdges"/>
  <rect x="227.586206896552" y="227.586206896552" width="10.3448275862069" height="10.3448275862069" fill="#000000" shape-rendering="crispEdges"/>
  <rect x="227.586206896552" y="248.275862068966" width="10.3448275862069" height="10.3448275862069" fill="#000000" shape-rendering="crispEdges"/>
  <rect x="227.586206896552" y="268.965517241379" width="10.3448275862069" height="10.3448275862069" fill="#000000" shape-rendering="crispEdges"/>
  <rect x="227.586206896552" y="279.310344827586" width="10.3448275862069" height="10.3448275862069" fill="#000000" shape-rendering="crispEdges"/>
  <rect x="227.586206896552" y="289.655172413793" width="10.3448275862069" height="10.3448275862069" fill="#000000" shape-rendering="crispEdges"/>
  <rect x="237.931034482759" y="0" width="10.3448275862069" height="10.3448275862069" fill="#000000" shape-rendering="crispEdges"/>
  <rect x="237.931034482759" y="62.0689655172414" width="10.3448275862069" height="10.3448275862069" fill="#000000" shape-rendering="crispEdges"/>
  <rect x="237.931034482759" y="93.1034482758621" width="10.3448275862069" height="10.3448275862069" fill="#000000" shape-rendering="crispEdges"/>
  <rect x="237.931034482759" y="124.137931034483" width="10.3448275862069" height="10.3448275862069" fill="#000000" shape-rendering="crispEdges"/>
  <rect x="237.931034482759" y="134.48275862069" width="10.3448275862069" height="10.3448275862069" fill="#000000" shape-rendering="crispEdges"/>
  <rect x="237.931034482759" y="155.172413793103" width="10.3448275862069" height="10.3448275862069" fill="#000000" shape-rendering="crispEdges"/>
  <rect x="237.931034482759" y="165.51724137931" width="10.3448275862069" height="10.3448275862069" fill="#000000" shape-rendering="crispEdges"/>
  <rect x="237.931034482759" y="175.862068965517" width="10.3448275862069" height="10.3448275862069" fill="#000000" shape-rendering="crispEdges"/>
  <rect x="237.931034482759" y="206.896551724138" width="10.3448275862069" height="10.3448275862069" fill="#000000" shape-rendering="crispEdges"/>
  <rect x="237.931034482759" y="248.275862068966" width="10.3448275862069" height="10.3448275862069" fill="#000000" shape-rendering="crispEdges"/>
  <rect x="237.931034482759" y="268.965517241379" width="10.3448275862069" height="10.3448275862069" fill="#000000" shape-rendering="crispEdges"/>
  <rect x="237.931034482759" y="279.310344827586" width="10.3448275862069" height="10.3448275862069" fill="#000000" shape-rendering="crispEdges"/>
  <rect x="237.931034482759" y="289.655172413793" width="10.3448275862069" height="10.3448275862069" fill="#000000" shape-rendering="crispEdges"/>
  <rect x="248.275862068966" y="0" width="10.3448275862069" height="10.3448275862069" fill="#000000" shape-rendering="crispEdges"/>
  <rect x="248.275862068966" y="20.6896551724138" width="10.3448275862069" height="10.3448275862069" fill="#000000" shape-rendering="crispEdges"/>
  <rect x="248.275862068966" y="31.0344827586207" width="10.3448275862069" height="10.3448275862069" fill="#000000" shape-rendering="crispEdges"/>
  <rect x="248.275862068966" y="41.3793103448276" width="10.3448275862069" height="10.3448275862069" fill="#000000" shape-rendering="crispEdges"/>
  <rect x="248.275862068966" y="62.0689655172414" width="10.3448275862069" height="10.3448275862069" fill="#000000" shape-rendering="crispEdges"/>
  <rect x="248.275862068966" y="82.7586206896552" width="10.3448275862069" height="10.3448275862069" fill="#000000" shape-rendering="crispEdges"/>
  <rect x="248.275862068966" y="93.1034482758621" width="10.3448275862069" height="10.3448275862069" fill="#000000" shape-rendering="crispEdges"/>
  <rect x="248.275862068966" y="103.448275862069" width="10.3448275862069" height="10.3448275862069" fill="#000000" shape-rendering="crispEdges"/>
  <rect x="248.275862068966" y="134.48275862069" width="10.3448275862069" height="10.3448275862069" fill="#000000" shape-rendering="crispEdges"/>
  <rect x="248.275862068966" y="144.827586206897" width="10.3448275862069" height="10.3448275862069" fill="#000000" shape-rendering="crispEdges"/>
  <rect x="248.275862068966" y="155.172413793103" width="10.3448275862069" height="10.3448275862069" fill="#000000" shape-rendering="crispEdges"/>
  <rect x="248.275862068966" y="175.862068965517" width="10.3448275862069" height="10.3448275862069" fill="#000000" shape-rendering="crispEdges"/>
  <rect x="248.275862068966" y="186.206896551724" width="10.3448275862069" height="10.3448275862069" fill="#000000" shape-rendering="crispEdges"/>
  <rect x="248.275862068966" y="206.896551724138" width="10.3448275862069" height="10.3448275862069" fill="#000000" shape-rendering="crispEdges"/>
  <rect x="248.275862068966" y="217.241379310345" width="10.3448275862069" height="10.3448275862069" fill="#000000" shape-rendering="crispEdges"/>
  <rect x="248.275862068966" y="227.586206896552" width="10.3448275862069" height="10.3448275862069" fill="#000000" shape-rendering="crispEdges"/>
  <rect x="248.275862068966" y="237.931034482759" width="10.3448275862069" height="10.3448275862069" fill="#000000" shape-rendering="crispEdges"/>
  <rect x="248.275862068966" y="248.275862068966" width="10.3448275862069" height="10.3448275862069" fill="#000000" shape-rendering="crispEdges"/>
  <rect x="248.275862068966" y="268.965517241379" width="10.3448275862069" height="10.3448275862069" fill="#000000" shape-rendering="crispEdges"/>
  <rect x="248.275862068966" y="289.655172413793" width="10.3448275862069" height="10.3448275862069" fill="#000000" shape-rendering="crispEdges"/>
  <rect x="258.620689655172" y="0" width="10.3448275862069" height="10.3448275862069" fill="#000000" shape-rendering="crispEdges"/>
  <rect x="258.620689655172" y="20.6896551724138" width="10.3448275862069" height="10.3448275862069" fill="#000000" shape-rendering="crispEdges"/>
  <rect x="258.620689655172" y="31.0344827586207" width="10.3448275862069" height="10.3448275862069" fill="#000000" shape-rendering="crispEdges"/>
  <rect x="258.620689655172" y="41.3793103448276" width="10.3448275862069" height="10.3448275862069" fill="#000000" shape-rendering="crispEdges"/>
  <rect x="258.620689655172" y="62.0689655172414" width="10.3448275862069" height="10.3448275862069" fill="#000000" shape-rendering="crispEdges"/>
  <rect x="258.620689655172" y="82.7586206896552" width="10.3448275862069" height="10.3448275862069" fill="#000000" shape-rendering="crispEdges"/>
  <rect x="258.620689655172" y="113.793103448276" width="10.3448275862069" height="10.3448275862069" fill="#000000" shape-rendering="crispEdges"/>
  <rect x="258.620689655172" y="144.827586206897" width="10.3448275862069" height="10.3448275862069" fill="#000000" shape-rendering="crispEdges"/>
  <rect x="258.620689655172" y="165.51724137931" width="10.3448275862069" height="10.3448275862069" fill="#000000" shape-rendering="crispEdges"/>
  <rect x="258.620689655172" y="186.206896551724" width="10.3448275862069" height="10.3448275862069" fill="#000000" shape-rendering="crispEdges"/>
  <rect x="258.620689655172" y="217.241379310345" width="10.3448275862069" height="10.3448275862069" fill="#000000" shape-rendering="crispEdges"/>
  <rect x="258.620689655172" y="227.586206896552" width="10.3448275862069" height="10.3448275862069" fill="#000000" shape-rendering="crispEdges"/>
  <rect x="258.620689655172" y="248.275862068966" width="10.3448275862069" height="10.3448275862069" fill="#000000" shape-rendering="crispEdges"/>
  <rect x="258.620689655172" y="258.620689655172" width="10.3448275862069" height="10.3448275862069" fill="#000000" shape-rendering="crispEdges"/>
  <rect x="258.620689655172" y="268.965517241379" width="10.3448275862069" height="10.3448275862069" fill="#000000" shape-rendering="crispEdges"/>
  <rect x="258.620689655172" y="279.310344827586" width="10.3448275862069" height="10.3448275862069" fill="#000000" shape-rendering="crispEdges"/>
  <rect x="268.965517241379" y="0" width="10.3448275862069" height="10.3448275862069" fill="#000000" shape-rendering="crispEdges"/>
  <rect x="268.965517241379" y="20.6896551724138" width="10.3448275862069" height="10.3448275862069" fill="#000000" shape-rendering="crispEdges"/>
  <rect x="268.965517241379" y="31.0344827586207" width="10.3448275862069" height="10.3448275862069" fill="#000000" shape-rendering="crispEdges"/>
  <rect x="268.965517241379" y="41.3793103448276" width="10.3448275862069" height="10.3448275862069" fill="#000000" shape-rendering="crispEdges"/>
  <rect x="268.965517241379" y="62.0689655172414" width="10.3448275862069" height="10.3448275862069" fill="#000000" shape-rendering="crispEdges"/>
  <rect x="268.965517241379" y="93.1034482758621" width="10.3448275862069" height="10.3448275862069" fill="#000000" shape-rendering="crispEdges"/>
  <rect x="268.965517241379" y="144.827586206897" width="10.3448275862069" height="10.3448275862069" fill="#000000" shape-rendering="crispEdges"/>
  <rect x="268.965517241379" y="155.172413793103" width="10.3448275862069" height="10.3448275862069" fill="#000000" shape-rendering="crispEdges"/>
  <rect x="268.965517241379" y="165.51724137931" width="10.3448275862069" height="10.3448275862069" fill="#000000" shape-rendering="crispEdges"/>
  <rect x="268.965517241379" y="175.862068965517" width="10.3448275862069" height="10.3448275862069" fill="#000000" shape-rendering="crispEdges"/>
  <rect x="268.965517241379" y="206.896551724138" width="10.3448275862069" height="10.3448275862069" fill="#000000" shape-rendering="crispEdges"/>
  <rect x="268.965517241379" y="227.586206896552" width="10.3448275862069" height="10.3448275862069" fill="#000000" shape-rendering="crispEdges"/>
  <rect x="268.965517241379" y="258.620689655172" width="10.3448275862069" height="10.3448275862069" fill="#000000" shape-rendering="crispEdges"/>
  <rect x="268.965517241379" y="268.965517241379" width="10.3448275862069" height="10.3448275862069" fill="#000000" shape-rendering="crispEdges"/>
  <rect x="268.965517241379" y="279.310344827586" width="10.3448275862069" height="10.3448275862069" fill="#000000" shape-rendering="crispEdges"/>
  <rect x="268.965517241379" y="289.655172413793" width="10.3448275862069" height="10.3448275862069" fill="#000000" shape-rendering="crispEdges"/>
  <rect x="279.310344827586" y="0" width="10.3448275862069" height="10.3448275862069" fill="#000000" shape-rendering="crispEdges"/>
  <rect x="279.310344827586" y="62.0689655172414" width="10.3448275862069" height="10.3448275862069" fill="#000000" shape-rendering="crispEdges"/>
  <rect x="279.310344827586" y="93.1034482758621" width="10.3448275862069" height="10.3448275862069" fill="#000000" shape-rendering="crispEdges"/>
  <rect x="279.310344827586" y="134.48275862069" width="10.3448275862069" height="10.3448275862069" fill="#000000" shape-rendering="crispEdges"/>
  <rect x="279.310344827586" y="175.862068965517" width="10.3448275862069" height="10.3448275862069" fill="#000000" shape-rendering="crispEdges"/>
  <rect x="279.310344827586" y="206.896551724138" width="10.3448275862069" height="10.3448275862069" fill="#000000" shape-rendering="crispEdges"/>
  <rect x="279.310344827586" y="237.931034482759" width="10.3448275862069" height="10.3448275862069" fill="#000000" shape-rendering="crispEdges"/>
  <rect x="279.310344827586" y="248.275862068966" width="10.3448275862069" height="10.3448275862069" fill="#000000" shape-rendering="crispEdges"/>
  <rect x="279.310344827586" y="268.965517241379" width="10.3448275862069" height="10.3448275862069" fill="#000000" shape-rendering="crispEdges"/>
  <rect x="289.655172413793" y="0" width="10.3448275862069" height="10.3448275862069" fill="#000000" shape-rendering="crispEdges"/>
  <rect x="289.655172413793" y="10.3448275862069" width="10.3448275862069" height="10.3448275862069" fill="#000000" shape-rendering="crispEdges"/>
  <rect x="289.655172413793" y="20.6896551724138" width="10.3448275862069" height="10.3448275862069" fill="#000000" shape-rendering="crispEdges"/>
  <rect x="289.655172413793" y="31.0344827586207" width="10.3448275862069" height="10.3448275862069" fill="#000000" shape-rendering="crispEdges"/>
  <rect x="289.655172413793" y="41.3793103448276" width="10.3448275862069" height="10.3448275862069" fill="#000000" shape-rendering="crispEdges"/>
  <rect x="289.655172413793" y="51.7241379310345" width="10.3448275862069" height="10.3448275862069" fill="#000000" shape-rendering="crispEdges"/>
  <rect x="289.655172413793" y="62.0689655172414" width="10.3448275862069" height="10.3448275862069" fill="#000000" shape-rendering="crispEdges"/>
  <rect x="289.655172413793" y="124.137931034483" width="10.3448275862069" height="10.3448275862069" fill="#000000" shape-rendering="crispEdges"/>
  <rect x="289.655172413793" y="134.48275862069" width="10.3448275862069" height="10.3448275862069" fill="#000000" shape-rendering="crispEdges"/>
  <rect x="289.655172413793" y="155.172413793103" width="10.3448275862069" height="10.3448275862069" fill="#000000" shape-rendering="crispEdges"/>
  <rect x="289.655172413793" y="175.862068965517" width="10.3448275862069" height="10.3448275862069" fill="#000000" shape-rendering="crispEdges"/>
  <rect x="289.655172413793" y="186.206896551724" width="10.3448275862069" height="10.3448275862069" fill="#000000" shape-rendering="crispEdges"/>
  <rect x="289.655172413793" y="206.896551724138" width="10.3448275862069" height="10.3448275862069" fill="#000000" shape-rendering="crispEdges"/>
  <rect x="289.655172413793" y="258.620689655172" width="10.3448275862069" height="10.3448275862069" fill="#000000" shape-rendering="crispEdges"/>
  <rect x="289.655172413793" y="279.310344827586" width="10.3448275862069" height="10.3448275862069" fill="#000000" shape-rendering="crispEdges"/>
</svg>
